<svg width="19" height="19" viewBox="0 0 19 19" fill="none" xmlns="http://www.w3.org/2000/svg">
    <path d="M9.49521 19C6.89999 19 6.59405 18.9863 5.58128 18.9421C4.7915 18.9161 4.01194 18.7558 3.27617 18.468C2.00315 17.9733 0.996528 16.9678 0.501599 15.6964C0.224465 14.959 0.074988 14.1799 0.0595666 13.3925C0.000488281 12.3833 0.000488281 12.0525 0.000488281 9.48104C0.000488281 6.88218 0.0142029 6.57879 0.0595666 5.57274C0.0753253 4.78637 0.224797 4.00838 0.501599 3.27201C0.99599 1.99895 2.00425 0.99253 3.27933 0.499335C4.01638 0.221437 4.79569 0.0717865 5.58339 0.0568862C6.59088 0 6.92214 0 9.49521 0C12.1115 0 12.4122 0.0136948 13.4092 0.0568862C14.1989 0.0719154 14.9803 0.22155 15.7195 0.499335C16.9943 0.993089 18.0023 1.99931 18.4973 3.27201C18.7791 4.01911 18.9293 4.80926 18.9414 5.60751C19.0005 6.61671 19.0005 6.94644 19.0005 9.51685C19.0005 12.0873 18.9857 12.4244 18.9414 13.422C18.9257 14.2102 18.7759 14.99 18.4983 15.728C18.0021 17.0002 16.994 18.0062 15.7195 18.5007C14.9813 18.7769 14.2015 18.9261 13.4134 18.9421C12.4059 19 12.0757 19 9.49521 19ZM9.45934 1.66761C6.87889 1.66761 6.61093 1.68025 5.60343 1.72555C5.00208 1.7335 4.40655 1.84432 3.84269 2.05317C3.01006 2.37132 2.3512 3.02655 2.02919 3.85668C1.81843 4.42585 1.70744 5.02703 1.7011 5.63384C1.64519 6.65463 1.64519 6.92221 1.64519 9.48104C1.64519 12.0093 1.65468 12.3159 1.7011 13.3303C1.71054 13.931 1.82147 14.5258 2.02919 15.0896C2.35167 15.9192 3.01042 16.5739 3.84269 16.892C4.40616 17.1023 5.00194 17.2131 5.60343 17.2197C6.62464 17.2787 6.89366 17.2787 9.45934 17.2787C12.0472 17.2787 12.3151 17.266 13.3142 17.2197C13.916 17.2124 14.5119 17.1015 15.076 16.892C15.9036 16.5712 16.5582 15.9179 16.88 15.0917C17.0904 14.5221 17.2013 13.9206 17.2081 13.3135H17.2197C17.2651 12.3064 17.2651 12.0378 17.2651 9.46418C17.2651 6.89061 17.2535 6.61987 17.2081 5.61383C17.1986 5.01384 17.0877 4.41976 16.88 3.85668C16.5589 3.02927 15.9042 2.37478 15.076 2.05317C14.5121 1.84326 13.916 1.73242 13.3142 1.72555C12.294 1.66761 12.0271 1.66761 9.45934 1.66761ZM9.49521 14.3469C7.52241 14.3482 5.74313 13.1626 4.98718 11.343C4.23124 9.52336 4.64753 7.42821 6.04191 6.03464C7.43629 4.64106 9.5341 4.22356 11.357 4.97684C13.1799 5.73012 14.3687 7.50581 14.3692 9.47577C14.3663 12.1632 12.1865 14.3417 9.49521 14.3469ZM9.49521 6.31332C7.74728 6.31332 6.33031 7.72825 6.33031 9.47366C6.33031 11.2191 7.74728 12.634 9.49521 12.634C11.2431 12.634 12.6601 11.2191 12.6601 9.47366C12.6561 7.72993 11.2415 6.31737 9.49521 6.31332ZM14.5591 5.56221C13.9318 5.55988 13.4249 5.05085 13.426 4.42449C13.4272 3.79813 13.936 3.29098 14.5633 3.29098C15.1905 3.29098 15.6994 3.79812 15.7005 4.42448C15.7008 4.72668 15.5806 5.01655 15.3664 5.23003C15.1522 5.44352 14.8617 5.56305 14.5591 5.56221Z" fill="#ffffff"/>
</svg>
