<svg width="19" height="18" viewBox="0 0 19 18" fill="none" xmlns="http://www.w3.org/2000/svg">
    <path d="M4.04432 7.79C5.48432 10.62 7.80432 12.94 10.6343 14.38L12.8343 12.18C13.1143 11.9 13.5043 11.82 13.8543 11.93C14.9743 12.3 16.1743 12.5 17.4243 12.5C17.6895 12.5 17.9439 12.6054 18.1314 12.7929C18.319 12.9804 18.4243 13.2348 18.4243 13.5V17C18.4243 17.2652 18.319 17.5196 18.1314 17.7071C17.9439 17.8946 17.6895 18 17.4243 18C12.9156 18 8.59162 16.2089 5.4035 13.0208C2.21538 9.8327 0.424316 5.50868 0.424316 1C0.424316 0.734784 0.529673 0.48043 0.71721 0.292893C0.904746 0.105357 1.1591 0 1.42432 0H4.92432C5.18953 0 5.44389 0.105357 5.63142 0.292893C5.81896 0.48043 5.92432 0.734784 5.92432 1C5.92432 2.25 6.12432 3.45 6.49432 4.57C6.60432 4.92 6.52432 5.31 6.24432 5.59L4.04432 7.79Z" fill="#ffffff"/>
</svg>
