<svg width="16" height="15" viewBox="0 0 16 15" fill="none" xmlns="http://www.w3.org/2000/svg">
    <path d="M8.07898 15C4.25879 14.9504 1.17415 11.9126 1.1238 8.15034C1.17415 4.3881 4.25879 1.35026 8.07898 1.30067C11.8992 1.35026 14.9838 4.3881 15.0342 8.15034C14.9838 11.9126 11.8992 14.9504 8.07898 15ZM8.07898 2.82282C5.1077 2.86135 2.70851 5.22414 2.6694 8.15034C2.70851 11.0765 5.1077 13.4393 8.07898 13.4779C11.0503 13.4393 13.4494 11.0765 13.4886 8.15034C13.4494 5.22414 11.0503 2.86135 8.07898 2.82282ZM11.943 8.91141H7.30618V4.34497H8.85178V7.38926H11.943V8.91141ZM14.487 3.36166L12.1617 1.07844L13.2505 0L15.5767 2.28322L14.487 3.3609V3.36166ZM1.67017 3.36166L0.57666 2.28322L2.8881 0L3.98161 1.07844L1.67171 3.36166H1.67017Z" fill="#ffffff"/>
</svg>